<?xml version="1.0" encoding="UTF-8"?>
<svg xmlns="http://www.w3.org/2000/svg" xmlns:xlink="http://www.w3.org/1999/xlink" width="3750" height="2250" viewBox="0 0 3750 2250">
<rect x="-375" y="-225" width="4500" height="2700" fill="rgb(36.473083%, 73.631287%, 68.554688%)" fill-opacity="1"/>
<path fill-rule="evenodd" fill="rgb(20.776367%, 48.631287%, 20.384216%)" fill-opacity="1" d="M 0 1112.210938 C 1362.761719 1694.777344 2513.488281 977.429688 3750 1112.210938 L 3750 2250 L 0 2250 Z M 0 1112.210938 "/>
<path fill-rule="evenodd" fill="rgb(52.929688%, 81.639099%, 22.363281%)" fill-opacity="1" d="M 0 1489.679688 C 1362.761719 2072.253906 2513.488281 977.429688 3750 1112.210938 L 3750 2250 L 0 2250 Z M 0 1489.679688 "/>
<path fill-rule="nonzero" fill="rgb(34.521484%, 72.851562%, 13.719177%)" fill-opacity="1" d="M 1119.820312 726.558594 C 901.996094 1033.460938 795.570312 1256.710938 1119.820312 1485.117188 C 1444.078125 1256.710938 1337.660156 1033.460938 1119.820312 726.558594 Z M 1119.820312 726.558594 "/>
<path fill-rule="nonzero" fill="rgb(87.109375%, 68.943787%, 22.75238%)" fill-opacity="1" d="M 1119.839844 1121.960938 C 1115.511719 1121.960938 1111.359375 1123.679688 1108.300781 1126.738281 C 1105.230469 1129.800781 1103.519531 1133.949219 1103.519531 1138.28125 L 1103.519531 1344.121094 L 1012.570312 1248.699219 C 1010.839844 1246.890625 1008.628906 1245.621094 1006.191406 1245.03125 C 1001.878906 1243.988281 997.339844 1245.21875 994.132812 1248.28125 C 988.925781 1253.253906 988.734375 1261.511719 993.707031 1266.71875 L 1103.519531 1381.945312 L 1103.519531 1746.152344 C 1103.519531 1750.476562 1105.238281 1754.625 1108.308594 1757.679688 C 1111.371094 1760.734375 1115.519531 1762.449219 1119.839844 1762.445312 C 1128.839844 1762.441406 1136.128906 1755.148438 1136.128906 1746.152344 L 1136.128906 1311.375 L 1246.511719 1195.558594 C 1251.480469 1190.351562 1251.289062 1182.101562 1246.089844 1177.121094 C 1242.878906 1174.058594 1238.328125 1172.828125 1234.019531 1173.871094 C 1231.589844 1174.460938 1229.378906 1175.730469 1227.648438 1177.550781 L 1136.128906 1273.550781 L 1136.128906 1138.28125 C 1136.140625 1133.960938 1134.421875 1129.808594 1131.371094 1126.75 C 1128.308594 1123.691406 1124.160156 1121.96875 1119.839844 1121.960938 Z M 1119.839844 1121.960938 "/>
<path fill-rule="evenodd" fill="rgb(61.914062%, 70.896912%, 9.812927%)" fill-opacity="1" d="M 0 1489.679688 C 1362.761719 2072.253906 2513.488281 1402.085938 3750 1536.867188 L 3750 2250 L 0 2250 Z M 0 1489.679688 "/>
<path fill-rule="nonzero" fill="rgb(54.101562%, 85.9375%, 83.201599%)" fill-opacity="1" d="M 571.59375 88.03125 C 472.398438 88.070312 386.976562 125.171875 367.320312 176.75 C 352.535156 175.011719 337.4375 174.128906 322.296875 174.121094 C 266.980469 174.121094 213.929688 185.78125 174.816406 206.53125 C 135.703125 227.28125 113.730469 255.429688 113.734375 284.769531 C 113.742188 331.921875 170.085938 373.878906 254.082031 389.308594 C 231.09375 374.21875 218.550781 355.421875 218.550781 336.019531 C 218.550781 289.210938 290.085938 251.269531 378.324219 251.269531 C 389.925781 251.269531 401.492188 251.941406 412.820312 253.269531 C 427.882812 213.761719 493.316406 185.339844 569.304688 185.308594 C 569.34375 185.308594 569.378906 185.308594 569.417969 185.308594 C 643.285156 185.320312 707.519531 212.179688 724.765625 250.28125 C 731.574219 249.808594 738.429688 249.578125 745.292969 249.578125 C 833.53125 249.578125 905.0625 287.519531 905.066406 334.328125 C 905.066406 353.421875 892.921875 371.941406 870.597656 386.910156 C 954.058594 371.320312 1009.890625 329.488281 1009.878906 282.550781 C 1009.878906 221.449219 916.503906 171.921875 801.320312 171.921875 C 792.363281 171.921875 783.417969 172.230469 774.535156 172.839844 C 752.019531 123.101562 668.164062 88.03125 571.738281 88.03125 C 571.691406 88.03125 571.644531 88.03125 571.59375 88.03125 Z M 571.59375 88.03125 "/>
<path fill-rule="nonzero" fill="rgb(34.521484%, 63.084412%, 11.767578%)" fill-opacity="1" d="M 480.160156 155.460938 C 39.714844 776 -175.476562 1227.410156 480.160156 1689.246094 C 1135.800781 1227.410156 920.605469 776 480.160156 155.460938 Z M 480.160156 155.460938 "/>
<path fill-rule="nonzero" fill="rgb(87.109375%, 68.943787%, 22.75238%)" fill-opacity="1" d="M 480.191406 954.960938 C 471.4375 954.949219 463.039062 958.421875 456.847656 964.609375 C 450.65625 970.800781 447.179688 979.191406 447.1875 987.949219 L 447.1875 1404.15625 L 263.292969 1211.21875 C 259.796875 1207.558594 255.320312 1204.980469 250.402344 1203.789062 C 241.679688 1201.691406 232.492188 1204.179688 226.011719 1210.371094 C 215.476562 1220.429688 215.089844 1237.121094 225.148438 1247.648438 L 447.1875 1480.636719 L 447.1875 2217.054688 C 447.191406 2225.800781 450.671875 2234.1875 456.863281 2240.367188 C 463.050781 2246.546875 471.445312 2250.011719 480.191406 2250 C 498.382812 2249.992188 513.125 2235.246094 513.136719 2217.054688 L 513.136719 1337.945312 L 736.320312 1103.769531 C 746.375 1093.238281 745.988281 1076.550781 735.453125 1066.5 C 728.96875 1060.289062 719.773438 1057.808594 711.050781 1059.921875 C 706.132812 1061.109375 701.664062 1063.679688 698.175781 1067.339844 L 513.136719 1261.464844 L 513.136719 987.949219 C 513.140625 979.210938 509.675781 970.820312 503.496094 964.628906 C 497.316406 958.441406 488.933594 954.960938 480.191406 954.960938 Z M 480.191406 954.960938 "/>
<path fill-rule="nonzero" fill="rgb(80.46875%, 92.96875%, 91.40625%)" fill-opacity="1" d="M 2890.121094 229.25 C 2781.019531 229.289062 2687.070312 270.089844 2665.449219 326.820312 C 2649.191406 324.910156 2632.578125 323.941406 2615.929688 323.941406 C 2555.089844 323.941406 2496.738281 336.761719 2453.71875 359.578125 C 2410.699219 382.398438 2386.539062 413.359375 2386.539062 445.628906 C 2386.550781 497.488281 2448.519531 543.640625 2540.898438 560.609375 C 2515.621094 544.019531 2501.820312 523.328125 2501.820312 502 C 2501.820312 450.519531 2580.5 408.78125 2677.550781 408.78125 C 2690.308594 408.78125 2703.03125 409.519531 2715.488281 410.980469 C 2732.058594 367.53125 2804.019531 336.28125 2887.601562 336.238281 C 2887.640625 336.238281 2887.679688 336.238281 2887.71875 336.238281 C 2968.960938 336.25 3039.609375 365.789062 3058.570312 407.691406 C 3066.058594 407.179688 3073.609375 406.929688 3081.148438 406.929688 C 3178.199219 406.929688 3256.878906 448.660156 3256.878906 500.140625 C 3256.878906 521.128906 3243.519531 541.511719 3218.96875 557.980469 C 3310.769531 540.828125 3372.171875 494.820312 3372.160156 443.191406 C 3372.160156 375.988281 3269.460938 321.511719 3142.769531 321.511719 C 3132.929688 321.511719 3123.078125 321.851562 3113.308594 322.519531 C 3088.550781 267.820312 2996.320312 229.25 2890.269531 229.25 C 2890.21875 229.25 2890.171875 229.25 2890.128906 229.25 Z M 2890.121094 229.25 "/>
<path fill-rule="nonzero" fill="rgb(20.776367%, 48.631287%, 20.384216%)" fill-opacity="1" d="M 3315.140625 111.519531 C 3762.140625 680.769531 3980.53125 1094.878906 3315.140625 1518.539062 C 2649.761719 1094.878906 2868.148438 680.769531 3315.140625 111.519531 Z M 3315.140625 111.519531 "/>
<path fill-rule="nonzero" fill="rgb(87.109375%, 68.943787%, 22.75238%)" fill-opacity="1" d="M 3315.121094 844.941406 C 3306.238281 844.941406 3297.730469 848.140625 3291.460938 853.820312 C 3285.191406 859.488281 3281.679688 867.191406 3281.691406 875.210938 L 3281.691406 1126.128906 L 3093.878906 948.03125 C 3090.339844 944.679688 3085.808594 942.308594 3080.820312 941.21875 C 3071.96875 939.300781 3062.640625 941.570312 3056.058594 947.261719 C 3045.378906 956.480469 3044.980469 971.78125 3055.179688 981.441406 L 3281.691406 1196.28125 L 3281.691406 2002.71875 C 3281.699219 2019.402344 3296.660156 2032.925781 3315.121094 2032.9375 C 3323.988281 2032.949219 3332.511719 2029.769531 3338.78125 2024.101562 C 3345.070312 2018.433594 3348.601562 2010.742188 3348.601562 2002.71875 L 3348.601562 1327.148438 L 3573.941406 1113.441406 C 3578.839844 1108.808594 3581.511719 1102.589844 3581.351562 1096.179688 C 3581.179688 1089.769531 3578.210938 1083.671875 3573.070312 1079.238281 C 3566.488281 1073.550781 3557.160156 1071.269531 3548.308594 1073.199219 C 3543.320312 1074.300781 3538.78125 1076.671875 3535.238281 1080.03125 L 3348.601562 1257.011719 L 3348.601562 875.210938 C 3348.621094 867.179688 3345.089844 859.480469 3338.808594 853.800781 C 3332.53125 848.121094 3324 844.929688 3315.121094 844.941406 Z M 3315.121094 844.941406 "/>
<path fill-rule="nonzero" fill="rgb(34.521484%, 62.693787%, 13.719177%)" fill-opacity="1" d="M 2685.28125 548.679688 C 3025.570312 1028.109375 3191.820312 1376.875 2685.28125 1733.6875 C 2178.730469 1376.875 2344.988281 1028.109375 2685.28125 548.679688 Z M 2685.28125 548.679688 "/>
<path fill-rule="nonzero" fill="rgb(87.109375%, 68.943787%, 22.75238%)" fill-opacity="1" d="M 2685.269531 1166.378906 C 2678.511719 1166.378906 2672.03125 1169.070312 2667.25 1173.851562 C 2662.480469 1178.628906 2659.800781 1185.109375 2659.808594 1191.871094 L 2659.808594 1403.1875 L 2516.839844 1253.203125 C 2514.140625 1250.375 2510.691406 1248.378906 2506.890625 1247.460938 C 2500.148438 1245.839844 2493.050781 1247.75 2488.039062 1252.542969 C 2479.910156 1260.316406 2479.609375 1273.207031 2487.378906 1281.34375 L 2659.808594 1462.265625 L 2659.808594 2141.46875 C 2659.808594 2155.527344 2671.199219 2166.925781 2685.261719 2166.929688 C 2692.019531 2166.933594 2698.5 2164.253906 2703.28125 2159.480469 C 2708.058594 2154.707031 2710.75 2148.226562 2710.75 2141.46875 L 2710.75 1572.511719 L 2882.300781 1392.511719 C 2890.070312 1384.375 2889.769531 1371.480469 2881.640625 1363.710938 C 2876.628906 1358.917969 2869.53125 1357.003906 2862.789062 1358.628906 C 2858.980469 1359.546875 2855.53125 1361.539062 2852.828125 1364.371094 L 2710.75 1513.433594 L 2710.75 1191.871094 C 2710.761719 1185.109375 2708.070312 1178.621094 2703.289062 1173.839844 C 2698.511719 1169.058594 2692.019531 1166.371094 2685.261719 1166.378906 Z M 2685.269531 1166.378906 "/>
<path fill-rule="evenodd" fill="rgb(20.776367%, 48.631287%, 20.384216%)" fill-opacity="1" d="M 1893.089844 1832.476562 C 1842.691406 1832.898438 1802.070312 1871.359375 1802.078125 1918.652344 C 1802.078125 1923.285156 1802.480469 1927.910156 1803.269531 1932.480469 C 1790.941406 1938.824219 1779.949219 1946.570312 1770.660156 1955.449219 C 1725.621094 1956.152344 1689.488281 1991.867188 1689.488281 2035.679688 C 1689.5 2075.222656 1719.121094 2108.871094 1759.289062 2114.957031 L 1759.289062 2250 L 2659.691406 2250 C 2665.96875 2237.574219 2669.21875 2224.101562 2669.21875 2210.476562 C 2669.21875 2173.296875 2645.171875 2139.429688 2607.410156 2123.421875 C 2615.488281 2110.316406 2619.75 2095.441406 2619.75 2080.296875 C 2619.761719 2057.441406 2610.078125 2035.519531 2592.859375 2019.355469 C 2575.628906 2003.195312 2552.269531 1994.117188 2527.910156 1994.121094 C 2511.5 1994.125 2495.390625 1998.257812 2481.25 2006.089844 C 2481.328125 2004.617188 2481.371094 2003.140625 2481.371094 2001.664062 C 2481.359375 1956.511719 2444.761719 1919.914062 2399.609375 1919.910156 C 2354.449219 1919.914062 2317.839844 1956.511719 2317.839844 2001.664062 C 2317.839844 2008 2318.570312 2014.308594 2320.039062 2020.472656 C 2300.480469 1991.179688 2265 1973.21875 2226.679688 1973.21875 C 2222.308594 1973.21875 2217.949219 1973.453125 2213.609375 1973.921875 C 2201.371094 1948.433594 2172.78125 1931.847656 2141.089844 1931.851562 C 2109.699219 1931.851562 2081.308594 1948.136719 2068.890625 1973.277344 C 2051.800781 1973.285156 2034.839844 1975.621094 2018.789062 1980.175781 C 2010.320312 1965.5625 1997.890625 1952.503906 1982.328125 1941.871094 C 1984.578125 1934.3125 1985.730469 1926.5 1985.730469 1918.652344 C 1985.730469 1871.261719 1944.949219 1832.761719 1894.449219 1832.476562 C 1894.269531 1832.476562 1894.078125 1832.476562 1893.890625 1832.476562 C 1893.628906 1832.472656 1893.359375 1832.472656 1893.089844 1832.476562 Z M 1893.089844 1832.476562 "/>
<path fill-rule="evenodd" fill="rgb(31.37207%, 68.554688%, 25.87738%)" fill-opacity="1" d="M 1561.199219 2008.40625 C 1524.28125 2008.40625 1490.058594 2023.269531 1471.050781 2047.566406 L 1471.050781 2250 L 2117.308594 2250 C 2121.820312 2241.078125 2124.148438 2231.410156 2124.148438 2221.632812 C 2124.148438 2190.769531 2101.160156 2163.636719 2067.789062 2155.097656 C 2064.140625 2123.527344 2030.488281 2099.355469 1990.199219 2099.355469 C 1987.46875 2099.355469 1984.738281 2099.46875 1982.03125 2099.695312 C 1967.339844 2087.703125 1947.089844 2080.925781 1925.921875 2080.925781 C 1908.691406 2080.929688 1891.949219 2085.421875 1878.308594 2093.707031 C 1866.148438 2068.039062 1837.859375 2051.34375 1806.511719 2051.34375 C 1788.121094 2051.34375 1770.320312 2057.125 1756.261719 2067.667969 C 1738.078125 2057.097656 1715.988281 2051.386719 1693.289062 2051.386719 C 1681.011719 2051.390625 1668.828125 2053.0625 1657.300781 2056.332031 C 1640.410156 2027.1875 1602.761719 2008.40625 1561.199219 2008.40625 Z M 1561.199219 2008.40625 "/>
<path fill-rule="nonzero" fill="rgb(87.109375%, 62.304688%, 22.75238%)" fill-opacity="1" d="M 1244.550781 1661.433594 C 1246.640625 1660.882812 1248.851562 1661.671875 1250.128906 1663.414062 C 1311.289062 1748.214844 1341.519531 1847.441406 1356.390625 1953.46875 C 1356.789062 1956.332031 1354.800781 1958.980469 1351.941406 1959.398438 C 1349.058594 1959.808594 1346.390625 1957.792969 1345.988281 1954.902344 C 1331.269531 1849.925781 1301.421875 1752.558594 1241.570312 1669.582031 C 1239.890625 1667.230469 1240.410156 1663.957031 1242.75 1662.253906 C 1243.289062 1661.871094 1243.898438 1661.589844 1244.550781 1661.429688 Z M 1244.550781 1661.433594 "/>
<path fill-rule="nonzero" fill="rgb(91.014099%, 94.139099%, 63.867188%)" fill-opacity="1" d="M 1230.191406 1730.734375 C 1129.210938 1716.964844 1357.628906 1594.304688 1313.328125 1686.089844 C 1269.039062 1777.871094 1222.960938 1522.730469 1296.570312 1593.222656 C 1370.171875 1663.71875 1113.28125 1628.691406 1203.070312 1580.476562 C 1292.851562 1532.257812 1180.160156 1765.753906 1162.050781 1665.460938 C 1143.941406 1565.167969 1331.179688 1744.5 1230.191406 1730.734375 Z M 1230.191406 1730.734375 "/>
<path fill-rule="nonzero" fill="rgb(87.109375%, 62.304688%, 22.75238%)" fill-opacity="1" d="M 1669.210938 1700.136719 C 1666.058594 1699.59375 1662.890625 1701.039062 1661.230469 1703.773438 C 1581.789062 1836.714844 1549.828125 1986.996094 1541.410156 2145.351562 C 1541.191406 2149.628906 1544.460938 2153.28125 1548.730469 2153.539062 C 1550.800781 2153.648438 1552.828125 2152.933594 1554.371094 2151.546875 C 1555.910156 2150.15625 1556.839844 2148.214844 1556.941406 2146.144531 C 1565.269531 1989.355469 1596.898438 1841.863281 1674.640625 1711.78125 C 1676.828125 1708.097656 1675.640625 1703.335938 1671.96875 1701.121094 C 1671.121094 1700.621094 1670.179688 1700.289062 1669.210938 1700.136719 Z M 1669.210938 1700.136719 "/>
<path fill-rule="nonzero" fill="rgb(91.014099%, 94.139099%, 63.867188%)" fill-opacity="1" d="M 1699.230469 1800.570312 C 1846.480469 1767.375 1493.769531 1615.5 1570.851562 1745.292969 C 1647.929688 1875.085938 1683.371094 1492.703125 1583.75 1606.117188 C 1484.128906 1719.53125 1858.75 1635.078125 1720.101562 1575.378906 C 1581.449219 1515.679688 1777.539062 1845.871094 1791.46875 1695.558594 C 1805.398438 1545.25 1551.960938 1833.769531 1699.230469 1800.570312 Z M 1699.230469 1800.570312 "/>
<path fill-rule="nonzero" fill="rgb(59.179688%, 95.701599%, 19.213867%)" fill-opacity="1" d="M 1136.550781 1831.601562 C 1294.851562 1792.132812 1348.019531 2023.105469 1338.519531 2247.421875 L 1241.101562 2247.421875 C 1251.589844 2046.769531 1272.808594 1915.066406 1136.550781 1831.601562 Z M 1136.550781 1831.601562 "/>
<path fill-rule="nonzero" fill="rgb(20.776367%, 49.804688%, 20.384216%)" fill-opacity="1" d="M 1186.488281 1848.0625 C 1185.039062 1848.082031 1183.710938 1848.917969 1183.078125 1850.222656 C 1182.171875 1852.125 1182.949219 1854.402344 1184.839844 1855.339844 C 1241.890625 1883.421875 1269.351562 1949.214844 1282.019531 2024.351562 C 1294.699219 2099.488281 1292.460938 2183.425781 1291.070312 2246.074219 C 1291.03125 2248.191406 1292.699219 2249.941406 1294.820312 2249.996094 C 1296.960938 2250.066406 1298.738281 2248.382812 1298.800781 2246.246094 C 1300.191406 2183.628906 1302.5 2099.308594 1289.640625 2023.097656 C 1276.789062 1946.890625 1248.691406 1878.207031 1188.25 1848.460938 C 1187.699219 1848.191406 1187.101562 1848.054688 1186.488281 1848.0625 Z M 1186.488281 1848.0625 "/>
<path fill-rule="nonzero" fill="rgb(59.179688%, 95.701599%, 19.213867%)" fill-opacity="1" d="M 1540.488281 1831.601562 C 1382.191406 1792.132812 1329.019531 2023.105469 1338.519531 2247.421875 L 1435.941406 2247.421875 C 1425.449219 2046.769531 1404.230469 1915.066406 1540.488281 1831.601562 Z M 1540.488281 1831.601562 "/>
<path fill-rule="nonzero" fill="rgb(20.776367%, 49.804688%, 20.384216%)" fill-opacity="1" d="M 1490.558594 1848.0625 C 1492.011719 1848.082031 1493.320312 1848.917969 1493.960938 1850.222656 C 1494.878906 1852.125 1494.089844 1854.402344 1492.199219 1855.339844 C 1435.160156 1883.421875 1407.691406 1949.214844 1395.019531 2024.351562 C 1382.339844 2099.488281 1384.578125 2183.425781 1385.980469 2246.074219 C 1386.011719 2248.191406 1384.339844 2249.941406 1382.21875 2249.996094 C 1380.078125 2250.066406 1378.300781 2248.382812 1378.238281 2246.246094 C 1376.839844 2183.628906 1374.539062 2099.308594 1387.398438 2023.097656 C 1400.25 1946.890625 1428.359375 1878.207031 1488.789062 1848.460938 C 1489.339844 1848.191406 1489.941406 1848.054688 1490.558594 1848.0625 Z M 1490.558594 1848.0625 "/>
<path fill-rule="nonzero" fill="rgb(59.179688%, 95.701599%, 19.213867%)" fill-opacity="1" d="M 1094.949219 1946.523438 C 1209.5 1917.964844 1247.980469 2085.101562 1241.101562 2247.421875 L 1170.601562 2247.421875 C 1178.191406 2102.226562 1193.550781 2006.921875 1094.949219 1946.523438 Z M 1094.949219 1946.523438 "/>
<path fill-rule="nonzero" fill="rgb(20.776367%, 49.804688%, 20.384216%)" fill-opacity="1" d="M 1131.089844 1958.4375 C 1130.039062 1958.453125 1129.078125 1959.054688 1128.621094 1960 C 1127.960938 1961.375 1128.53125 1963.027344 1129.890625 1963.703125 C 1171.171875 1984.023438 1191.050781 2031.632812 1200.21875 2086.003906 C 1209.390625 2140.375 1207.769531 2201.113281 1206.761719 2246.445312 C 1206.730469 2247.976562 1207.941406 2249.246094 1209.480469 2249.285156 C 1211.019531 2249.335938 1212.320312 2248.117188 1212.359375 2246.570312 C 1213.371094 2201.257812 1215.039062 2140.242188 1205.730469 2085.097656 C 1196.429688 2029.949219 1176.089844 1980.25 1132.359375 1958.726562 C 1131.960938 1958.53125 1131.53125 1958.429688 1131.089844 1958.4375 Z M 1131.089844 1958.4375 "/>
<path fill-rule="nonzero" fill="rgb(59.179688%, 95.701599%, 19.213867%)" fill-opacity="1" d="M 1351 1831.601562 C 1509.308594 1792.132812 1562.480469 2023.109375 1552.980469 2247.421875 L 1455.558594 2247.421875 C 1466.050781 2046.773438 1487.269531 1915.066406 1351 1831.601562 Z M 1351 1831.601562 "/>
<path fill-rule="nonzero" fill="rgb(20.776367%, 49.804688%, 20.384216%)" fill-opacity="1" d="M 1400.941406 1848.0625 C 1399.488281 1848.082031 1398.171875 1848.917969 1397.53125 1850.222656 C 1396.628906 1852.125 1397.410156 1854.402344 1399.300781 1855.339844 C 1456.339844 1883.421875 1483.808594 1949.214844 1496.480469 2024.351562 C 1509.160156 2099.488281 1506.921875 2183.425781 1505.519531 2246.074219 C 1505.480469 2248.191406 1507.160156 2249.941406 1509.28125 2249.996094 C 1511.410156 2250.066406 1513.199219 2248.382812 1513.261719 2246.246094 C 1514.648438 2183.628906 1516.960938 2099.308594 1504.101562 2023.097656 C 1491.25 1946.890625 1463.140625 1878.207031 1402.710938 1848.460938 C 1402.160156 1848.191406 1401.558594 1848.054688 1400.941406 1848.0625 Z M 1400.941406 1848.0625 "/>
<path fill-rule="nonzero" fill="rgb(59.179688%, 95.701599%, 19.213867%)" fill-opacity="1" d="M 1761.101562 1831.601562 C 1602.808594 1792.132812 1549.628906 2023.109375 1559.128906 2247.421875 L 1656.550781 2247.421875 C 1646.058594 2046.773438 1624.839844 1915.066406 1761.101562 1831.601562 Z M 1761.101562 1831.601562 "/>
<path fill-rule="nonzero" fill="rgb(20.776367%, 49.804688%, 20.384216%)" fill-opacity="1" d="M 1711.160156 1848.0625 C 1712.621094 1848.082031 1713.929688 1848.917969 1714.570312 1850.222656 C 1715.480469 1852.125 1714.699219 1854.402344 1712.808594 1855.34375 C 1655.769531 1883.421875 1628.300781 1949.214844 1615.628906 2024.351562 C 1602.949219 2099.488281 1605.191406 2183.425781 1606.589844 2246.074219 C 1606.621094 2248.191406 1604.941406 2249.941406 1602.828125 2250 C 1600.691406 2250.066406 1598.910156 2248.382812 1598.851562 2246.246094 C 1597.460938 2183.628906 1595.148438 2099.308594 1608.011719 2023.097656 C 1620.859375 1946.890625 1648.96875 1878.207031 1709.398438 1848.460938 C 1709.949219 1848.191406 1710.550781 1848.054688 1711.160156 1848.0625 Z M 1711.160156 1848.0625 "/>
<path fill-rule="nonzero" fill="rgb(59.179688%, 95.701599%, 19.213867%)" fill-opacity="1" d="M 1059.359375 2021.234375 C 1145.910156 1999.65625 1174.980469 2125.945312 1169.789062 2248.589844 L 1116.519531 2248.589844 C 1122.261719 2138.882812 1133.859375 2066.871094 1059.359375 2021.234375 Z M 1059.359375 2021.234375 "/>
<path fill-rule="nonzero" fill="rgb(20.776367%, 49.804688%, 20.384216%)" fill-opacity="1" d="M 1086.660156 2030.234375 C 1085.871094 2030.246094 1085.148438 2030.703125 1084.800781 2031.417969 C 1084.300781 2032.457031 1084.730469 2033.703125 1085.761719 2034.214844 C 1116.949219 2049.570312 1131.96875 2085.539062 1138.898438 2126.621094 C 1145.828125 2167.703125 1144.609375 2213.597656 1143.839844 2247.851562 C 1143.820312 2249.011719 1144.738281 2249.96875 1145.890625 2250 C 1147.058594 2250.035156 1148.039062 2249.117188 1148.070312 2247.945312 C 1148.839844 2213.710938 1150.089844 2167.605469 1143.070312 2125.9375 C 1136.039062 2084.269531 1120.671875 2046.71875 1087.628906 2030.453125 C 1087.328125 2030.304688 1087 2030.230469 1086.660156 2030.234375 Z M 1086.660156 2030.234375 "/>
<path fill-rule="nonzero" fill="rgb(59.179688%, 95.701599%, 19.213867%)" fill-opacity="1" d="M 1757.199219 2021.234375 C 1670.648438 1999.65625 1641.570312 2125.945312 1646.769531 2248.589844 L 1700.039062 2248.589844 C 1694.300781 2138.882812 1682.691406 2066.871094 1757.199219 2021.234375 Z M 1757.199219 2021.234375 "/>
<path fill-rule="nonzero" fill="rgb(20.776367%, 49.804688%, 20.384216%)" fill-opacity="1" d="M 1729.890625 2030.234375 C 1730.691406 2030.246094 1731.410156 2030.703125 1731.761719 2031.417969 C 1732.25 2032.457031 1731.828125 2033.703125 1730.800781 2034.214844 C 1699.601562 2049.570312 1684.589844 2085.542969 1677.660156 2126.625 C 1670.730469 2167.707031 1671.949219 2213.597656 1672.71875 2247.855469 C 1672.730469 2249.011719 1671.820312 2249.96875 1670.660156 2250 C 1669.488281 2250.035156 1668.519531 2249.117188 1668.480469 2247.945312 C 1667.71875 2213.710938 1666.460938 2167.609375 1673.488281 2125.9375 C 1680.519531 2084.269531 1695.890625 2046.71875 1728.929688 2030.453125 C 1729.230469 2030.304688 1729.558594 2030.230469 1729.890625 2030.234375 Z M 1729.890625 2030.234375 "/>
<path fill-rule="evenodd" fill="rgb(20.776367%, 61.521912%, 20.384216%)" fill-opacity="1" d="M 210.484375 1683.824219 C 124.277344 1683.820312 44.386719 1718.519531 0 1775.242188 L 0 2247.847656 L 1508.761719 2247.847656 C 1519.289062 2227.019531 1524.730469 2204.449219 1524.730469 2181.621094 C 1524.730469 2109.570312 1471.070312 2046.21875 1393.160156 2026.289062 C 1384.628906 1952.582031 1306.078125 1896.152344 1212.011719 1896.152344 C 1205.640625 1896.152344 1199.269531 1896.417969 1192.941406 1896.941406 C 1158.660156 1868.945312 1111.371094 1853.128906 1061.949219 1853.128906 C 1021.730469 1853.132812 982.636719 1863.625 950.800781 1882.96875 C 922.402344 1823.039062 856.355469 1784.066406 783.179688 1784.0625 C 740.234375 1784.0625 698.675781 1797.5625 665.859375 1822.175781 C 623.417969 1797.503906 571.84375 1784.167969 518.847656 1784.164062 C 490.1875 1784.171875 461.75 1788.078125 434.824219 1795.707031 C 395.410156 1727.667969 307.496094 1683.824219 210.484375 1683.824219 Z M 210.484375 1683.824219 "/>
<path fill-rule="nonzero" fill="rgb(87.109375%, 62.304688%, 22.75238%)" fill-opacity="1" d="M 665.074219 1897.921875 C 666.804688 1897.613281 668.546875 1898.390625 669.46875 1899.886719 C 713.542969 1972.5 731.636719 2054.804688 736.855469 2141.628906 C 736.992188 2143.972656 735.214844 2145.992188 732.871094 2146.148438 C 730.507812 2146.289062 728.476562 2144.488281 728.34375 2142.121094 C 723.179688 2056.160156 705.269531 1975.382812 662.144531 1904.328125 C 660.925781 1902.316406 661.5625 1899.699219 663.570312 1898.472656 C 664.03125 1898.195312 664.542969 1898.007812 665.074219 1897.921875 Z M 665.074219 1897.921875 "/>
<path fill-rule="nonzero" fill="rgb(91.014099%, 94.139099%, 63.867188%)" fill-opacity="1" d="M 648.992188 1953.121094 C 568.097656 1935.46875 760.980469 1850.835938 719.195312 1922.316406 C 677.414062 1993.796875 656.523438 1784.203125 711.59375 1846.03125 C 766.664062 1907.859375 560.871094 1862.957031 636.691406 1829.6875 C 712.511719 1796.417969 606.214844 1978.261719 598.003906 1895.871094 C 589.792969 1813.484375 729.886719 1970.773438 648.992188 1953.121094 Z M 648.992188 1953.121094 "/>
<path fill-rule="nonzero" fill="rgb(87.109375%, 62.304688%, 22.75238%)" fill-opacity="1" d="M 1072.871094 1977.972656 C 1071.460938 1977.21875 1069.738281 1977.398438 1068.519531 1978.425781 C 1009.859375 2028.667969 970.886719 2094.648438 941.769531 2168.183594 C 940.984375 2170.167969 941.949219 2172.417969 943.929688 2173.214844 C 945.929688 2174.011719 948.195312 2173.027344 948.980469 2171.023438 C 977.8125 2098.214844 1016.191406 2033.503906 1073.589844 1984.339844 C 1075.210938 1982.949219 1075.398438 1980.507812 1074.019531 1978.875 C 1073.691406 1978.507812 1073.308594 1978.199219 1072.878906 1977.972656 Z M 1072.871094 1977.972656 "/>
<path fill-rule="nonzero" fill="rgb(91.014099%, 94.139099%, 63.867188%)" fill-opacity="1" d="M 1071.121094 2030.226562 C 1146.011719 2037.910156 1003.359375 1910.105469 1019.199219 1983.707031 C 1035.039062 2057.3125 1112.5 1882.148438 1047.390625 1919.953125 C 982.285156 1957.757812 1172.820312 1977.304688 1116.738281 1927.066406 C 1060.660156 1876.828125 1100.949219 2064.074219 1131.398438 1995.21875 C 1161.859375 1926.363281 996.222656 2022.542969 1071.121094 2030.226562 Z M 1071.121094 2030.226562 "/>
<path fill-rule="nonzero" fill="rgb(59.179688%, 95.701599%, 19.213867%)" fill-opacity="1" d="M 569.503906 1944.75 C 684.179688 1916.15625 722.699219 2083.480469 715.816406 2245.980469 L 645.242188 2245.980469 C 652.84375 2100.625 668.214844 2005.214844 569.503906 1944.75 Z M 569.503906 1944.75 "/>
<path fill-rule="nonzero" fill="rgb(20.776367%, 49.804688%, 20.384216%)" fill-opacity="1" d="M 605.679688 1956.675781 C 604.625 1956.6875 603.671875 1957.292969 603.207031 1958.238281 C 602.550781 1959.617188 603.117188 1961.269531 604.484375 1961.949219 C 645.8125 1982.289062 665.707031 2029.949219 674.886719 2084.378906 C 684.070312 2138.8125 682.449219 2199.617188 681.4375 2245.003906 C 681.410156 2246.535156 682.625 2247.804688 684.15625 2247.84375 C 685.707031 2247.894531 687 2246.675781 687.042969 2245.125 C 688.050781 2199.765625 689.722656 2138.683594 680.410156 2083.472656 C 671.097656 2028.265625 650.738281 1978.511719 606.957031 1956.960938 C 606.558594 1956.765625 606.121094 1956.667969 605.679688 1956.675781 Z M 605.679688 1956.675781 "/>
<path fill-rule="nonzero" fill="rgb(59.179688%, 95.701599%, 19.213867%)" fill-opacity="1" d="M 862.128906 1944.75 C 747.453125 1916.15625 708.929688 2083.480469 715.816406 2245.980469 L 786.390625 2245.980469 C 778.789062 2100.625 763.417969 2005.214844 862.128906 1944.75 Z M 862.128906 1944.75 "/>
<path fill-rule="nonzero" fill="rgb(20.776367%, 49.804688%, 20.384216%)" fill-opacity="1" d="M 825.953125 1956.675781 C 827.003906 1956.6875 827.960938 1957.292969 828.421875 1958.238281 C 829.082031 1959.617188 828.511719 1961.269531 827.144531 1961.949219 C 785.820312 1982.289062 765.925781 2029.949219 756.742188 2084.378906 C 747.5625 2138.8125 749.179688 2199.617188 750.191406 2245.003906 C 750.21875 2246.535156 749.007812 2247.804688 747.472656 2247.84375 C 745.925781 2247.894531 744.632812 2246.675781 744.589844 2245.125 C 743.578125 2199.765625 741.910156 2138.683594 751.222656 2083.472656 C 760.535156 2028.265625 780.894531 1978.511719 824.675781 1956.960938 C 825.070312 1956.765625 825.507812 1956.667969 825.953125 1956.675781 Z M 825.953125 1956.675781 "/>
<path fill-rule="nonzero" fill="rgb(59.179688%, 95.701599%, 19.213867%)" fill-opacity="1" d="M 539.367188 2028.003906 C 622.347656 2007.3125 650.222656 2128.390625 645.242188 2245.980469 L 594.171875 2245.980469 C 599.671875 2140.796875 610.796875 2071.757812 539.367188 2028.003906 Z M 539.367188 2028.003906 "/>
<path fill-rule="nonzero" fill="rgb(20.776367%, 49.804688%, 20.384216%)" fill-opacity="1" d="M 565.546875 2036.632812 C 564.78125 2036.644531 564.089844 2037.082031 563.757812 2037.765625 C 563.28125 2038.761719 563.691406 2039.957031 564.679688 2040.449219 C 594.585938 2055.167969 608.980469 2089.65625 615.625 2129.042969 C 622.269531 2168.429688 621.097656 2212.433594 620.367188 2245.273438 C 620.347656 2246.382812 621.222656 2247.300781 622.332031 2247.328125 C 623.453125 2247.367188 624.390625 2246.484375 624.417969 2245.363281 C 625.152344 2212.539062 626.359375 2168.335938 619.621094 2128.386719 C 612.882812 2088.4375 598.148438 2052.433594 566.46875 2036.839844 C 566.183594 2036.699219 565.863281 2036.628906 565.546875 2036.632812 Z M 565.546875 2036.632812 "/>
<path fill-rule="nonzero" fill="rgb(59.179688%, 95.701599%, 19.213867%)" fill-opacity="1" d="M 724.859375 1944.75 C 839.535156 1916.15625 878.058594 2083.480469 871.171875 2245.980469 L 800.597656 2245.980469 C 808.199219 2100.625 823.570312 2005.214844 724.859375 1944.75 Z M 724.859375 1944.75 "/>
<path fill-rule="nonzero" fill="rgb(20.776367%, 49.804688%, 20.384216%)" fill-opacity="1" d="M 761.035156 1956.675781 C 759.984375 1956.6875 759.027344 1957.292969 758.566406 1958.238281 C 757.90625 1959.617188 758.476562 1961.269531 759.84375 1961.949219 C 801.167969 1982.289062 821.0625 2029.949219 830.246094 2084.382812 C 839.425781 2138.8125 837.808594 2199.617188 836.796875 2245.003906 C 836.769531 2246.535156 837.980469 2247.804688 839.515625 2247.84375 C 841.0625 2247.894531 842.355469 2246.675781 842.398438 2245.125 C 843.410156 2199.765625 845.078125 2138.683594 835.765625 2083.476562 C 826.453125 2028.265625 806.09375 1978.511719 762.3125 1956.960938 C 761.917969 1956.765625 761.480469 1956.667969 761.035156 1956.675781 Z M 761.035156 1956.675781 "/>
<path fill-rule="nonzero" fill="rgb(59.179688%, 95.701599%, 19.213867%)" fill-opacity="1" d="M 1021.941406 1944.75 C 907.269531 1916.15625 868.746094 2083.480469 875.628906 2245.980469 L 946.203125 2245.980469 C 938.601562 2100.625 923.234375 2005.214844 1021.941406 1944.75 Z M 1021.941406 1944.75 "/>
<path fill-rule="nonzero" fill="rgb(20.776367%, 49.804688%, 20.384216%)" fill-opacity="1" d="M 985.765625 1956.675781 C 986.820312 1956.6875 987.773438 1957.292969 988.238281 1958.238281 C 988.894531 1959.617188 988.328125 1961.269531 986.960938 1961.949219 C 945.632812 1982.289062 925.738281 2029.949219 916.558594 2084.382812 C 907.375 2138.8125 908.996094 2199.617188 910.007812 2245.003906 C 910.035156 2246.535156 908.820312 2247.804688 907.289062 2247.84375 C 905.738281 2247.894531 904.445312 2246.675781 904.40625 2245.125 C 903.394531 2199.765625 901.722656 2138.683594 911.035156 2083.476562 C 920.347656 2028.265625 940.707031 1978.511719 984.488281 1956.964844 C 984.886719 1956.765625 985.324219 1956.667969 985.765625 1956.675781 Z M 985.765625 1956.675781 "/>
<path fill-rule="nonzero" fill="rgb(59.179688%, 95.701599%, 19.213867%)" fill-opacity="1" d="M 513.585938 2082.125 C 576.285156 2066.492188 597.347656 2157.976562 593.582031 2246.824219 L 554.996094 2246.824219 C 559.152344 2167.351562 567.554688 2115.183594 513.585938 2082.125 Z M 513.585938 2082.125 "/>
<path fill-rule="nonzero" fill="rgb(20.776367%, 49.804688%, 20.384216%)" fill-opacity="1" d="M 533.363281 2088.644531 C 532.789062 2088.652344 532.265625 2088.984375 532.011719 2089.5 C 531.652344 2090.253906 531.964844 2091.15625 532.710938 2091.527344 C 555.308594 2102.648438 566.183594 2128.710938 571.207031 2158.46875 C 576.226562 2188.230469 575.339844 2221.476562 574.785156 2246.292969 C 574.773438 2247.128906 575.4375 2247.824219 576.273438 2247.847656 C 577.121094 2247.875 577.828125 2247.207031 577.851562 2246.359375 C 578.402344 2221.558594 579.316406 2188.160156 574.222656 2157.972656 C 569.132812 2127.789062 558 2100.585938 534.0625 2088.800781 C 533.847656 2088.695312 533.605469 2088.640625 533.363281 2088.644531 Z M 533.363281 2088.644531 "/>
<path fill-rule="nonzero" fill="rgb(59.179688%, 95.701599%, 19.213867%)" fill-opacity="1" d="M 1019.109375 2082.125 C 956.414062 2066.492188 935.351562 2157.976562 939.117188 2246.824219 L 977.703125 2246.824219 C 973.546875 2167.351562 965.144531 2115.183594 1019.109375 2082.125 Z M 1019.109375 2082.125 "/>
<path fill-rule="nonzero" fill="rgb(20.776367%, 49.804688%, 20.384216%)" fill-opacity="1" d="M 999.335938 2088.644531 C 999.910156 2088.652344 1000.429688 2088.984375 1000.691406 2089.5 C 1001.050781 2090.253906 1000.730469 2091.15625 999.988281 2091.527344 C 977.390625 2102.648438 966.515625 2128.710938 961.492188 2158.46875 C 956.472656 2188.230469 957.359375 2221.476562 957.914062 2246.292969 C 957.925781 2247.128906 957.265625 2247.824219 956.425781 2247.847656 C 955.578125 2247.875 954.871094 2247.207031 954.847656 2246.359375 C 954.296875 2221.558594 953.382812 2188.160156 958.476562 2157.972656 C 963.566406 2127.789062 974.699219 2100.585938 998.636719 2088.800781 C 998.851562 2088.695312 999.09375 2088.640625 999.335938 2088.644531 Z M 999.335938 2088.644531 "/>
<path fill-rule="evenodd" fill="rgb(39.988708%, 78.125%, 50.584412%)" fill-opacity="1" d="M 90.160156 2008.40625 C 53.234375 2008.40625 19.011719 2023.269531 0 2047.566406 L 0 2250 L 646.261719 2250 C 650.769531 2241.078125 653.101562 2231.410156 653.101562 2221.632812 C 653.101562 2190.769531 630.117188 2163.636719 596.742188 2155.097656 C 593.09375 2123.527344 559.445312 2099.355469 519.152344 2099.355469 C 516.425781 2099.355469 513.699219 2099.46875 510.984375 2099.695312 C 496.296875 2087.703125 476.042969 2080.925781 454.878906 2080.925781 C 437.648438 2080.929688 420.902344 2085.421875 407.265625 2093.707031 C 395.101562 2068.039062 366.8125 2051.34375 335.46875 2051.34375 C 317.074219 2051.34375 299.269531 2057.125 285.214844 2067.667969 C 267.035156 2057.097656 244.945312 2051.386719 222.242188 2051.386719 C 209.96875 2051.390625 197.785156 2053.0625 186.253906 2056.332031 C 169.371094 2027.1875 131.710938 2008.40625 90.160156 2008.40625 Z M 90.160156 2008.40625 "/>
<path fill-rule="nonzero" fill="rgb(87.109375%, 62.304688%, 22.75238%)" fill-opacity="1" d="M 269.851562 1848.472656 C 267.550781 1848.691406 265.617188 1850.292969 264.976562 1852.515625 C 234.753906 1960.109375 240.878906 2070.820312 264.921875 2182.707031 C 265.574219 2185.726562 268.542969 2187.652344 271.566406 2187.023438 C 273.03125 2186.710938 274.308594 2185.828125 275.117188 2184.570312 C 275.925781 2183.316406 276.203125 2181.785156 275.886719 2180.324219 C 252.078125 2069.546875 246.253906 1960.84375 275.828125 1855.558594 C 276.660156 1852.578125 274.929688 1849.488281 271.953125 1848.636719 C 271.269531 1848.449219 270.554688 1848.394531 269.851562 1848.472656 Z M 269.851562 1848.472656 "/>
<path fill-rule="nonzero" fill="rgb(91.014099%, 94.139099%, 63.867188%)" fill-opacity="1" d="M 309.722656 1912.757812 C 406.023438 1861.824219 131.667969 1822.65625 209.867188 1898.5 C 288.066406 1974.347656 240.539062 1701.320312 192.570312 1799.128906 C 144.601562 1896.9375 389.578125 1767.363281 281.734375 1751.964844 C 173.890625 1736.570312 372.824219 1929.519531 354.140625 1822.195312 C 335.457031 1714.871094 213.425781 1963.691406 309.722656 1912.757812 Z M 309.722656 1912.757812 "/>
<path fill-rule="nonzero" fill="rgb(59.179688%, 95.701599%, 19.213867%)" fill-opacity="1" d="M 80.472656 1891.078125 C 215.453125 1857.425781 260.796875 2054.378906 252.691406 2245.648438 L 169.621094 2245.648438 C 178.570312 2074.554688 196.660156 1962.25 80.472656 1891.078125 Z M 80.472656 1891.078125 "/>
<path fill-rule="nonzero" fill="rgb(20.776367%, 49.804688%, 20.384216%)" fill-opacity="1" d="M 123.054688 1905.117188 C 121.816406 1905.132812 120.691406 1905.847656 120.144531 1906.960938 C 119.371094 1908.582031 120.039062 1910.523438 121.648438 1911.324219 C 170.292969 1935.269531 193.710938 1991.367188 204.519531 2055.4375 C 215.324219 2119.503906 213.417969 2191.078125 212.226562 2244.5 C 212.195312 2246.304688 213.625 2247.796875 215.429688 2247.84375 C 217.25 2247.902344 218.773438 2246.46875 218.824219 2244.644531 C 220.011719 2191.25 221.976562 2119.351562 211.015625 2054.371094 C 200.054688 1989.386719 176.089844 1930.820312 124.558594 1905.457031 C 124.089844 1905.226562 123.574219 1905.109375 123.054688 1905.117188 Z M 123.054688 1905.117188 "/>
<path fill-rule="nonzero" fill="rgb(59.179688%, 95.701599%, 19.213867%)" fill-opacity="1" d="M 424.910156 1891.078125 C 289.933594 1857.425781 244.585938 2054.378906 252.691406 2245.648438 L 335.761719 2245.648438 C 326.8125 2074.554688 308.722656 1962.25 424.910156 1891.078125 Z M 424.910156 1891.078125 "/>
<path fill-rule="nonzero" fill="rgb(20.776367%, 49.804688%, 20.384216%)" fill-opacity="1" d="M 382.328125 1905.117188 C 383.570312 1905.132812 384.695312 1905.847656 385.238281 1906.960938 C 386.011719 1908.582031 385.34375 1910.523438 383.734375 1911.324219 C 335.089844 1935.269531 311.671875 1991.367188 300.867188 2055.4375 C 290.058594 2119.503906 291.964844 2191.078125 293.15625 2244.5 C 293.1875 2246.304688 291.757812 2247.796875 289.957031 2247.84375 C 288.132812 2247.902344 286.609375 2246.46875 286.5625 2244.644531 C 285.371094 2191.25 283.40625 2119.351562 294.367188 2054.371094 C 305.328125 1989.386719 329.292969 1930.820312 380.824219 1905.457031 C 381.292969 1905.226562 381.808594 1905.109375 382.328125 1905.117188 Z M 382.328125 1905.117188 "/>
<path fill-rule="nonzero" fill="rgb(59.179688%, 95.701599%, 19.213867%)" fill-opacity="1" d="M 45 1989.074219 C 142.675781 1964.722656 175.488281 2107.242188 169.621094 2245.648438 L 109.511719 2245.648438 C 115.984375 2121.84375 129.074219 2040.578125 45 1989.074219 Z M 45 1989.074219 "/>
<path fill-rule="nonzero" fill="rgb(20.776367%, 49.804688%, 20.384216%)" fill-opacity="1" d="M 75.8125 1999.234375 C 74.917969 1999.246094 74.101562 1999.761719 73.707031 2000.566406 C 73.148438 2001.738281 73.632812 2003.144531 74.796875 2003.722656 C 109.996094 2021.050781 126.941406 2061.644531 134.761719 2108.007812 C 142.582031 2154.367188 141.203125 2206.160156 140.339844 2244.816406 C 140.320312 2246.121094 141.351562 2247.203125 142.65625 2247.238281 C 143.976562 2247.28125 145.078125 2246.242188 145.113281 2244.921875 C 145.972656 2206.285156 147.394531 2154.257812 139.464844 2107.234375 C 131.53125 2060.210938 114.191406 2017.832031 76.902344 1999.480469 C 76.5625 1999.3125 76.191406 1999.226562 75.8125 1999.234375 Z M 75.8125 1999.234375 "/>
<path fill-rule="evenodd" fill="rgb(20.776367%, 61.521912%, 20.384216%)" fill-opacity="1" d="M 3523.5 1550.375 C 3438.890625 1550.859375 3370.558594 1615.363281 3370.558594 1694.765625 C 3370.558594 1707.921875 3372.480469 1721.015625 3376.261719 1733.6875 C 3350.191406 1751.5 3329.359375 1773.378906 3315.179688 1797.859375 C 3288.269531 1790.238281 3259.859375 1786.332031 3231.230469 1786.316406 C 3210.410156 1744.1875 3162.839844 1716.898438 3110.230469 1716.898438 C 3057.140625 1716.898438 3009.230469 1744.6875 2988.71875 1787.386719 C 2981.449219 1786.605469 2974.140625 1786.214844 2966.820312 1786.214844 C 2902.609375 1786.21875 2843.148438 1816.308594 2810.390625 1865.390625 C 2812.828125 1855.066406 2814.070312 1844.492188 2814.070312 1833.882812 C 2814.058594 1758.21875 2752.730469 1696.878906 2677.058594 1696.875 C 2601.390625 1696.871094 2540.039062 1758.210938 2540.039062 1833.882812 C 2540.039062 1836.347656 2540.109375 1838.816406 2540.238281 1841.277344 C 2516.558594 1828.164062 2489.558594 1821.242188 2462.050781 1821.238281 C 2421.238281 1821.238281 2382.101562 1836.449219 2353.238281 1863.53125 C 2324.378906 1890.609375 2308.171875 1927.335938 2308.171875 1965.628906 C 2308.171875 1991.007812 2315.300781 2015.9375 2328.839844 2037.90625 C 2265.570312 2064.730469 2225.28125 2121.480469 2225.269531 2183.773438 C 2225.269531 2206.605469 2230.71875 2229.175781 2241.238281 2250 L 3750 2250 L 3750 1777.398438 C 3731.429688 1753.664062 3706.269531 1733.363281 3676.320312 1717.9375 C 3677.640625 1710.277344 3678.308594 1702.527344 3678.308594 1694.765625 C 3678.308594 1615.023438 3609.421875 1550.382812 3524.441406 1550.375 C 3524.128906 1550.375 3523.820312 1550.375 3523.5 1550.375 Z M 3523.5 1550.375 "/>
<path fill-rule="nonzero" fill="rgb(87.109375%, 62.304688%, 22.75238%)" fill-opacity="1" d="M 3517.761719 1885.601562 C 3515.878906 1885.242188 3513.96875 1886.066406 3512.941406 1887.6875 C 3463.890625 1966.292969 3443.050781 2055.816406 3436.191406 2150.445312 C 3436.011719 2153 3437.921875 2155.222656 3440.480469 2155.425781 C 3443.050781 2155.613281 3445.289062 2153.675781 3445.46875 2151.097656 C 3452.261719 2057.40625 3472.878906 1969.546875 3520.871094 1892.628906 C 3522.21875 1890.453125 3521.558594 1887.589844 3519.390625 1886.222656 C 3518.890625 1885.914062 3518.339844 1885.703125 3517.761719 1885.601562 Z M 3517.761719 1885.601562 "/>
<path fill-rule="nonzero" fill="rgb(91.014099%, 94.139099%, 63.867188%)" fill-opacity="1" d="M 3534.558594 1946.023438 C 3623.019531 1927.863281 3413.789062 1832.957031 3458.398438 1911.480469 C 3503.011719 1990.007812 3528.621094 1761.683594 3467.71875 1828.378906 C 3406.820312 1895.074219 3631.878906 1848.867188 3549.628906 1811.5625 C 3467.390625 1774.253906 3580.878906 1974.019531 3590.941406 1884.269531 C 3601.011719 1794.519531 3446.089844 1964.1875 3534.558594 1946.023438 Z M 3534.558594 1946.023438 "/>
<path fill-rule="nonzero" fill="rgb(87.109375%, 62.304688%, 22.75238%)" fill-opacity="1" d="M 3232.519531 1898.40625 C 3234.398438 1898.042969 3236.308594 1898.871094 3237.339844 1900.488281 C 3286.378906 1979.09375 3307.230469 2068.621094 3314.089844 2163.25 C 3314.269531 2165.804688 3312.359375 2168.027344 3309.800781 2168.230469 C 3307.230469 2168.417969 3304.988281 2166.476562 3304.808594 2163.902344 C 3298.019531 2070.210938 3277.398438 1982.347656 3229.410156 1905.433594 C 3228.050781 1903.253906 3228.710938 1900.390625 3230.878906 1899.027344 C 3231.378906 1898.71875 3231.941406 1898.507812 3232.519531 1898.402344 Z M 3232.519531 1898.40625 "/>
<path fill-rule="nonzero" fill="rgb(91.014099%, 94.139099%, 63.867188%)" fill-opacity="1" d="M 3215.71875 1958.828125 C 3127.25 1940.664062 3336.488281 1845.757812 3291.878906 1924.285156 C 3247.269531 2002.808594 3221.660156 1774.488281 3282.558594 1841.183594 C 3343.449219 1907.875 3118.390625 1861.671875 3200.640625 1824.363281 C 3282.890625 1787.058594 3169.398438 1986.824219 3159.339844 1897.074219 C 3149.269531 1807.324219 3304.191406 1976.988281 3215.71875 1958.828125 Z M 3215.71875 1958.828125 "/>
<path fill-rule="nonzero" fill="rgb(59.179688%, 95.701599%, 19.213867%)" fill-opacity="1" d="M 3150.390625 1946.902344 C 3265.058594 1918.308594 3303.589844 2085.632812 3296.699219 2248.132812 L 3226.128906 2248.132812 C 3233.730469 2102.777344 3249.101562 2007.367188 3150.390625 1946.902344 Z M 3150.390625 1946.902344 "/>
<path fill-rule="nonzero" fill="rgb(20.776367%, 49.804688%, 20.384216%)" fill-opacity="1" d="M 3186.570312 1958.828125 C 3185.511719 1958.84375 3184.558594 1959.445312 3184.089844 1960.394531 C 3183.429688 1961.769531 3184 1963.421875 3185.371094 1964.101562 C 3226.699219 1984.441406 3246.589844 2032.101562 3255.769531 2086.535156 C 3264.960938 2140.964844 3263.339844 2201.769531 3262.320312 2247.15625 C 3262.300781 2248.6875 3263.511719 2249.957031 3265.039062 2250 C 3266.589844 2250.046875 3267.890625 2248.828125 3267.929688 2247.28125 C 3268.941406 2201.917969 3270.609375 2140.835938 3261.289062 2085.628906 C 3251.980469 2030.417969 3231.621094 1980.664062 3187.839844 1959.117188 C 3187.449219 1958.917969 3187.011719 1958.820312 3186.570312 1958.828125 Z M 3186.570312 1958.828125 "/>
<path fill-rule="nonzero" fill="rgb(59.179688%, 95.701599%, 19.213867%)" fill-opacity="1" d="M 3443.011719 1946.902344 C 3328.339844 1918.308594 3289.820312 2085.632812 3296.699219 2248.132812 L 3367.269531 2248.132812 C 3359.671875 2102.777344 3344.308594 2007.367188 3443.011719 1946.902344 Z M 3443.011719 1946.902344 "/>
<path fill-rule="nonzero" fill="rgb(20.776367%, 49.804688%, 20.384216%)" fill-opacity="1" d="M 3406.839844 1958.828125 C 3407.890625 1958.84375 3408.839844 1959.445312 3409.308594 1960.394531 C 3409.96875 1961.769531 3409.398438 1963.421875 3408.03125 1964.101562 C 3366.699219 1984.441406 3346.808594 2032.101562 3337.628906 2086.535156 C 3328.441406 2140.964844 3330.070312 2201.769531 3331.078125 2247.15625 C 3331.109375 2248.6875 3329.890625 2249.957031 3328.359375 2250 C 3326.808594 2250.046875 3325.519531 2248.828125 3325.480469 2247.28125 C 3324.46875 2201.917969 3322.800781 2140.835938 3332.109375 2085.628906 C 3341.421875 2030.417969 3361.78125 1980.664062 3405.558594 1959.117188 C 3405.960938 1958.917969 3406.390625 1958.820312 3406.839844 1958.828125 Z M 3406.839844 1958.828125 "/>
<path fill-rule="nonzero" fill="rgb(59.179688%, 95.701599%, 19.213867%)" fill-opacity="1" d="M 3120.25 2030.15625 C 3203.230469 2009.464844 3231.109375 2130.546875 3226.128906 2248.132812 L 3175.058594 2248.132812 C 3180.558594 2142.949219 3191.679688 2073.910156 3120.25 2030.15625 Z M 3120.25 2030.15625 "/>
<path fill-rule="nonzero" fill="rgb(20.776367%, 49.804688%, 20.384216%)" fill-opacity="1" d="M 3146.429688 2038.785156 C 3145.671875 2038.796875 3144.980469 2039.234375 3144.640625 2039.917969 C 3144.160156 2040.914062 3144.578125 2042.109375 3145.570312 2042.601562 C 3175.46875 2057.320312 3189.871094 2091.808594 3196.511719 2131.195312 C 3203.160156 2170.582031 3201.980469 2214.585938 3201.25 2247.425781 C 3201.230469 2248.535156 3202.109375 2249.453125 3203.21875 2249.484375 C 3204.339844 2249.519531 3205.269531 2248.636719 3205.308594 2247.515625 C 3206.039062 2214.691406 3207.238281 2170.492188 3200.5 2130.539062 C 3193.769531 2090.589844 3179.039062 2054.589844 3147.359375 2038.992188 C 3147.070312 2038.851562 3146.75 2038.78125 3146.429688 2038.785156 Z M 3146.429688 2038.785156 "/>
<path fill-rule="nonzero" fill="rgb(59.179688%, 95.701599%, 19.213867%)" fill-opacity="1" d="M 3305.75 1946.902344 C 3420.421875 1918.308594 3458.941406 2085.632812 3452.058594 2248.132812 L 3381.480469 2248.132812 C 3389.089844 2102.777344 3404.449219 2007.367188 3305.75 1946.902344 Z M 3305.75 1946.902344 "/>
<path fill-rule="nonzero" fill="rgb(20.776367%, 49.804688%, 20.384216%)" fill-opacity="1" d="M 3341.921875 1958.828125 C 3340.871094 1958.84375 3339.910156 1959.445312 3339.449219 1960.394531 C 3338.789062 1961.769531 3339.359375 1963.421875 3340.730469 1964.101562 C 3382.058594 1984.441406 3401.949219 2032.101562 3411.128906 2086.535156 C 3420.308594 2140.964844 3418.691406 2201.773438 3417.679688 2247.15625 C 3417.648438 2248.6875 3418.871094 2249.957031 3420.398438 2250 C 3421.949219 2250.046875 3423.238281 2248.828125 3423.28125 2247.28125 C 3424.289062 2201.917969 3425.96875 2140.835938 3416.648438 2085.628906 C 3407.339844 2030.421875 3386.980469 1980.664062 3343.199219 1959.117188 C 3342.800781 1958.921875 3342.359375 1958.820312 3341.921875 1958.828125 Z M 3341.921875 1958.828125 "/>
<path fill-rule="nonzero" fill="rgb(59.179688%, 95.701599%, 19.213867%)" fill-opacity="1" d="M 3602.828125 1946.902344 C 3488.148438 1918.308594 3449.628906 2085.632812 3456.519531 2248.132812 L 3527.089844 2248.132812 C 3519.488281 2102.777344 3504.121094 2007.367188 3602.828125 1946.902344 Z M 3602.828125 1946.902344 "/>
<path fill-rule="nonzero" fill="rgb(20.776367%, 49.804688%, 20.384216%)" fill-opacity="1" d="M 3566.648438 1958.828125 C 3567.699219 1958.84375 3568.660156 1959.449219 3569.121094 1960.394531 C 3569.78125 1961.769531 3569.210938 1963.421875 3567.839844 1964.101562 C 3526.519531 1984.441406 3506.628906 2032.101562 3497.441406 2086.535156 C 3488.261719 2140.964844 3489.878906 2201.773438 3490.890625 2247.15625 C 3490.921875 2248.6875 3489.710938 2249.957031 3488.171875 2250 C 3486.628906 2250.046875 3485.328125 2248.828125 3485.289062 2247.28125 C 3484.28125 2201.917969 3482.609375 2140.835938 3491.921875 2085.628906 C 3501.230469 2030.421875 3521.589844 1980.664062 3565.378906 1959.117188 C 3565.769531 1958.921875 3566.210938 1958.820312 3566.648438 1958.828125 Z M 3566.648438 1958.828125 "/>
<path fill-rule="nonzero" fill="rgb(59.179688%, 95.701599%, 19.213867%)" fill-opacity="1" d="M 3094.46875 2084.277344 C 3157.171875 2068.644531 3178.230469 2160.128906 3174.46875 2248.980469 L 3135.878906 2248.980469 C 3140.039062 2169.503906 3148.441406 2117.335938 3094.46875 2084.277344 Z M 3094.46875 2084.277344 "/>
<path fill-rule="nonzero" fill="rgb(20.776367%, 49.804688%, 20.384216%)" fill-opacity="1" d="M 3114.25 2090.796875 C 3113.679688 2090.804688 3113.148438 2091.136719 3112.898438 2091.652344 C 3112.539062 2092.40625 3112.851562 2093.308594 3113.601562 2093.679688 C 3136.191406 2104.804688 3147.070312 2130.863281 3152.089844 2160.621094 C 3157.109375 2190.382812 3156.230469 2223.628906 3155.671875 2248.445312 C 3155.660156 2249.28125 3156.320312 2249.976562 3157.160156 2250 C 3158 2250.027344 3158.710938 2249.359375 3158.730469 2248.511719 C 3159.289062 2223.710938 3160.199219 2190.3125 3155.109375 2160.128906 C 3150.019531 2129.941406 3138.890625 2102.738281 3114.949219 2090.957031 C 3114.730469 2090.847656 3114.488281 2090.792969 3114.25 2090.796875 Z M 3114.25 2090.796875 "/>
<path fill-rule="nonzero" fill="rgb(59.179688%, 95.701599%, 19.213867%)" fill-opacity="1" d="M 3600 2084.277344 C 3537.300781 2068.644531 3516.238281 2160.132812 3520 2248.980469 L 3558.589844 2248.980469 C 3554.429688 2169.503906 3546.03125 2117.335938 3600 2084.277344 Z M 3600 2084.277344 "/>
<path fill-rule="nonzero" fill="rgb(20.776367%, 49.804688%, 20.384216%)" fill-opacity="1" d="M 3580.21875 2090.796875 C 3580.800781 2090.804688 3581.320312 2091.136719 3581.570312 2091.652344 C 3581.929688 2092.40625 3581.621094 2093.308594 3580.871094 2093.679688 C 3558.28125 2104.804688 3547.398438 2130.863281 3542.378906 2160.625 C 3537.359375 2190.382812 3538.25 2223.628906 3538.800781 2248.445312 C 3538.808594 2249.28125 3538.148438 2249.976562 3537.308594 2250 C 3536.46875 2250.027344 3535.761719 2249.359375 3535.730469 2248.511719 C 3535.179688 2223.710938 3534.269531 2190.3125 3539.359375 2160.128906 C 3544.449219 2129.941406 3555.578125 2102.738281 3579.519531 2090.957031 C 3579.738281 2090.847656 3579.980469 2090.792969 3580.21875 2090.796875 Z M 3580.21875 2090.796875 "/>
<path fill-rule="nonzero" fill="rgb(87.109375%, 62.304688%, 22.75238%)" fill-opacity="1" d="M 2517.339844 1984.128906 C 2518.558594 1984.246094 2519.578125 1985.097656 2519.921875 1986.277344 C 2535.980469 2043.445312 2532.730469 2102.265625 2519.949219 2161.710938 C 2519.609375 2163.316406 2518.03125 2164.339844 2516.421875 2164.003906 C 2514.808594 2163.660156 2513.78125 2162.0625 2514.128906 2160.445312 C 2526.78125 2101.589844 2529.871094 2043.832031 2514.160156 1987.894531 C 2513.71875 1986.3125 2514.640625 1984.667969 2516.21875 1984.21875 C 2516.578125 1984.117188 2516.960938 1984.085938 2517.339844 1984.128906 Z M 2517.339844 1984.128906 "/>
<path fill-rule="nonzero" fill="rgb(91.014099%, 94.139099%, 63.867188%)" fill-opacity="1" d="M 2496.148438 2018.285156 C 2444.980469 1991.222656 2590.75 1970.414062 2549.199219 2010.710938 C 2507.660156 2051.007812 2532.910156 1905.945312 2558.390625 1957.914062 C 2583.878906 2009.878906 2453.71875 1941.035156 2511.019531 1932.855469 C 2568.320312 1924.675781 2462.628906 2027.191406 2472.550781 1970.167969 C 2482.480469 1913.144531 2547.308594 2045.347656 2496.148438 2018.285156 Z M 2496.148438 2018.285156 "/>
<path fill-rule="nonzero" fill="rgb(59.179688%, 95.701599%, 19.213867%)" fill-opacity="1" d="M 2415.429688 2012.273438 C 2505.378906 1989.847656 2535.589844 2121.085938 2530.191406 2248.535156 L 2474.839844 2248.535156 C 2480.800781 2134.53125 2492.859375 2059.699219 2415.429688 2012.273438 Z M 2415.429688 2012.273438 "/>
<path fill-rule="nonzero" fill="rgb(20.776367%, 49.804688%, 20.384216%)" fill-opacity="1" d="M 2443.808594 2021.628906 C 2442.980469 2021.636719 2442.230469 2022.113281 2441.871094 2022.855469 C 2441.351562 2023.933594 2441.800781 2025.230469 2442.871094 2025.761719 C 2475.289062 2041.71875 2490.890625 2079.097656 2498.089844 2121.789062 C 2505.289062 2164.480469 2504.019531 2212.171875 2503.230469 2247.769531 C 2503.210938 2248.972656 2504.160156 2249.964844 2505.359375 2250 C 2506.570312 2250.039062 2507.589844 2249.082031 2507.621094 2247.867188 C 2508.410156 2212.289062 2509.71875 2164.378906 2502.421875 2121.078125 C 2495.121094 2077.777344 2479.148438 2038.753906 2444.808594 2021.851562 C 2444.5 2021.699219 2444.160156 2021.621094 2443.808594 2021.628906 Z M 2443.808594 2021.628906 "/>
<path fill-rule="nonzero" fill="rgb(59.179688%, 95.701599%, 19.213867%)" fill-opacity="1" d="M 2794.949219 2012.273438 C 2705 1989.847656 2674.789062 2121.085938 2680.191406 2248.535156 L 2735.539062 2248.535156 C 2729.578125 2134.53125 2717.53125 2059.699219 2794.949219 2012.273438 Z M 2794.949219 2012.273438 "/>
<path fill-rule="nonzero" fill="rgb(20.776367%, 49.804688%, 20.384216%)" fill-opacity="1" d="M 2766.570312 2021.628906 C 2767.398438 2021.636719 2768.148438 2022.113281 2768.511719 2022.855469 C 2769.03125 2023.933594 2768.578125 2025.230469 2767.511719 2025.761719 C 2735.089844 2041.71875 2719.488281 2079.097656 2712.289062 2121.789062 C 2705.089844 2164.480469 2706.359375 2212.171875 2707.148438 2247.769531 C 2707.171875 2248.972656 2706.21875 2249.964844 2705.019531 2250 C 2703.808594 2250.039062 2702.789062 2249.082031 2702.761719 2247.867188 C 2701.96875 2212.289062 2700.660156 2164.378906 2707.960938 2121.078125 C 2715.269531 2077.777344 2731.230469 2038.753906 2765.570312 2021.851562 C 2765.878906 2021.699219 2766.21875 2021.621094 2766.570312 2021.628906 Z M 2766.570312 2021.628906 "/>
<path fill-rule="nonzero" fill="rgb(59.179688%, 95.701599%, 19.213867%)" fill-opacity="1" d="M 2391.800781 2077.570312 C 2456.878906 2061.34375 2478.75 2156.308594 2474.839844 2248.535156 L 2434.78125 2248.535156 C 2439.101562 2166.039062 2447.820312 2111.886719 2391.800781 2077.570312 Z M 2391.800781 2077.570312 "/>
<path fill-rule="nonzero" fill="rgb(20.776367%, 49.804688%, 20.384216%)" fill-opacity="1" d="M 2412.328125 2084.339844 C 2411.730469 2084.347656 2411.191406 2084.691406 2410.929688 2085.226562 C 2410.550781 2086.011719 2410.878906 2086.945312 2411.648438 2087.332031 C 2435.109375 2098.878906 2446.398438 2125.925781 2451.609375 2156.820312 C 2456.820312 2187.710938 2455.898438 2222.222656 2455.320312 2247.980469 C 2455.308594 2248.851562 2456 2249.570312 2456.871094 2249.59375 C 2457.75 2249.621094 2458.480469 2248.929688 2458.511719 2248.050781 C 2459.078125 2222.304688 2460.03125 2187.640625 2454.738281 2156.304688 C 2449.460938 2124.972656 2437.898438 2096.734375 2413.058594 2084.503906 C 2412.828125 2084.390625 2412.578125 2084.335938 2412.328125 2084.339844 Z M 2412.328125 2084.339844 "/>
<path fill-rule="nonzero" fill="rgb(59.179688%, 95.701599%, 19.213867%)" fill-opacity="1" d="M 2687.289062 2012.273438 C 2777.230469 1989.847656 2807.441406 2121.085938 2802.039062 2248.535156 L 2746.691406 2248.535156 C 2752.648438 2134.53125 2764.699219 2059.699219 2687.289062 2012.273438 Z M 2687.289062 2012.273438 "/>
<path fill-rule="nonzero" fill="rgb(20.776367%, 49.804688%, 20.384216%)" fill-opacity="1" d="M 2715.660156 2021.628906 C 2714.828125 2021.636719 2714.078125 2022.113281 2713.71875 2022.855469 C 2713.199219 2023.933594 2713.648438 2025.230469 2714.71875 2025.761719 C 2747.128906 2041.71875 2762.738281 2079.097656 2769.941406 2121.789062 C 2777.140625 2164.480469 2775.871094 2212.171875 2775.078125 2247.769531 C 2775.058594 2248.972656 2776.011719 2249.964844 2777.210938 2250 C 2778.429688 2250.039062 2779.441406 2249.082031 2779.46875 2247.867188 C 2780.269531 2212.289062 2781.570312 2164.378906 2774.269531 2121.078125 C 2766.96875 2077.777344 2751 2038.753906 2716.660156 2021.851562 C 2716.351562 2021.699219 2716 2021.621094 2715.660156 2021.625 Z M 2715.660156 2021.628906 "/>
<path fill-rule="nonzero" fill="rgb(87.109375%, 62.304688%, 22.75238%)" fill-opacity="1" d="M 2834.910156 1958.136719 C 2833.320312 1958.285156 2831.980469 1959.394531 2831.539062 1960.929688 C 2810.660156 2035.269531 2814.890625 2111.761719 2831.5 2189.066406 C 2831.949219 2191.15625 2834 2192.488281 2836.089844 2192.050781 C 2838.199219 2191.601562 2839.53125 2189.527344 2839.070312 2187.421875 C 2822.628906 2110.882812 2818.601562 2035.777344 2839.039062 1963.03125 C 2839.609375 1960.972656 2838.410156 1958.835938 2836.359375 1958.25 C 2835.890625 1958.121094 2835.390625 1958.082031 2834.910156 1958.132812 Z M 2834.910156 1958.136719 "/>
<path fill-rule="nonzero" fill="rgb(91.014099%, 94.139099%, 63.867188%)" fill-opacity="1" d="M 2862.449219 2002.550781 C 2928.988281 1967.359375 2739.429688 1940.296875 2793.460938 1992.703125 C 2847.488281 2045.105469 2814.648438 1856.460938 2781.511719 1924.042969 C 2748.359375 1991.621094 2917.628906 1902.09375 2843.121094 1891.457031 C 2768.601562 1880.816406 2906.050781 2014.132812 2893.140625 1939.980469 C 2880.230469 1865.824219 2795.921875 2037.742188 2862.449219 2002.550781 Z M 2862.449219 2002.550781 "/>
<path fill-rule="nonzero" fill="rgb(59.179688%, 95.701599%, 19.213867%)" fill-opacity="1" d="M 2920.289062 2012.273438 C 2830.351562 1989.847656 2800.140625 2121.085938 2805.539062 2248.535156 L 2860.890625 2248.535156 C 2854.929688 2134.53125 2842.871094 2059.699219 2920.289062 2012.273438 Z M 2920.289062 2012.273438 "/>
<path fill-rule="nonzero" fill="rgb(20.776367%, 49.804688%, 20.384216%)" fill-opacity="1" d="M 2891.921875 2021.628906 C 2892.738281 2021.640625 2893.488281 2022.113281 2893.859375 2022.855469 C 2894.371094 2023.9375 2893.929688 2025.230469 2892.859375 2025.761719 C 2860.441406 2041.71875 2844.839844 2079.097656 2837.640625 2121.789062 C 2830.429688 2164.480469 2831.699219 2212.171875 2832.5 2247.769531 C 2832.519531 2248.972656 2831.570312 2249.964844 2830.371094 2250 C 2829.148438 2250.039062 2828.140625 2249.082031 2828.109375 2247.867188 C 2827.308594 2212.289062 2826 2164.378906 2833.308594 2121.078125 C 2840.609375 2077.777344 2856.578125 2038.753906 2890.910156 2021.855469 C 2891.230469 2021.699219 2891.570312 2021.621094 2891.921875 2021.628906 Z M 2891.921875 2021.628906 "/>
<path fill-rule="nonzero" fill="rgb(59.179688%, 95.701599%, 19.213867%)" fill-opacity="1" d="M 2502.238281 2058.796875 C 2574.578125 2040.761719 2598.878906 2146.3125 2594.539062 2248.820312 L 2550.019531 2248.820312 C 2554.808594 2157.128906 2564.511719 2096.941406 2502.238281 2058.796875 Z M 2502.238281 2058.796875 "/>
<path fill-rule="nonzero" fill="rgb(20.776367%, 49.804688%, 20.384216%)" fill-opacity="1" d="M 2525.058594 2066.320312 C 2524.398438 2066.328125 2523.789062 2066.710938 2523.5 2067.308594 C 2523.089844 2068.175781 2523.449219 2069.21875 2524.308594 2069.644531 C 2550.378906 2082.480469 2562.929688 2112.542969 2568.71875 2146.882812 C 2574.511719 2181.21875 2573.488281 2219.574219 2572.851562 2248.207031 C 2572.839844 2249.171875 2573.601562 2249.972656 2574.570312 2250 C 2575.550781 2250.03125 2576.359375 2249.261719 2576.390625 2248.285156 C 2577.019531 2219.667969 2578.078125 2181.136719 2572.199219 2146.308594 C 2566.328125 2111.484375 2553.480469 2080.097656 2525.871094 2066.5 C 2525.621094 2066.378906 2525.339844 2066.316406 2525.058594 2066.320312 Z M 2525.058594 2066.320312 "/>
<path fill-rule="nonzero" fill="rgb(59.179688%, 95.701599%, 19.213867%)" fill-opacity="1" d="M 2918.070312 2120.019531 C 2868.898438 2107.757812 2852.378906 2179.515625 2855.328125 2249.199219 L 2885.589844 2249.199219 C 2882.328125 2186.867188 2875.738281 2145.949219 2918.070312 2120.019531 Z M 2918.070312 2120.019531 "/>
<path fill-rule="nonzero" fill="rgb(20.776367%, 49.804688%, 20.384216%)" fill-opacity="1" d="M 2902.558594 2125.132812 C 2903.011719 2125.140625 2903.421875 2125.398438 2903.621094 2125.804688 C 2903.898438 2126.394531 2903.660156 2127.105469 2903.070312 2127.394531 C 2885.351562 2136.121094 2876.820312 2156.558594 2872.878906 2179.898438 C 2868.941406 2203.242188 2869.640625 2229.316406 2870.070312 2248.78125 C 2870.078125 2249.4375 2869.558594 2249.980469 2868.910156 2250 C 2868.238281 2250.019531 2867.691406 2249.496094 2867.671875 2248.832031 C 2867.230469 2229.382812 2866.519531 2203.1875 2870.511719 2179.511719 C 2874.511719 2155.835938 2883.238281 2134.5 2902.011719 2125.257812 C 2902.179688 2125.175781 2902.371094 2125.132812 2902.558594 2125.132812 Z M 2902.558594 2125.132812 "/>
<path fill-rule="nonzero" fill="rgb(59.179688%, 95.701599%, 19.213867%)" fill-opacity="1" d="M 2593.96875 2077.976562 C 2528.878906 2061.75 2507.019531 2156.714844 2510.929688 2248.941406 L 2550.980469 2248.941406 C 2546.660156 2166.445312 2537.941406 2112.292969 2593.96875 2077.976562 Z M 2593.96875 2077.976562 "/>
<path fill-rule="nonzero" fill="rgb(20.776367%, 49.804688%, 20.384216%)" fill-opacity="1" d="M 2573.429688 2084.746094 C 2574.03125 2084.753906 2574.570312 2085.097656 2574.839844 2085.632812 C 2575.210938 2086.414062 2574.890625 2087.351562 2574.109375 2087.738281 C 2550.660156 2099.28125 2539.371094 2126.332031 2534.160156 2157.226562 C 2528.949219 2188.117188 2529.859375 2222.628906 2530.441406 2248.386719 C 2530.449219 2249.257812 2529.761719 2249.976562 2528.890625 2250 C 2528.019531 2250.027344 2527.28125 2249.335938 2527.261719 2248.457031 C 2526.679688 2222.710938 2525.730469 2188.042969 2531.019531 2156.710938 C 2536.308594 2125.378906 2547.859375 2097.140625 2572.710938 2084.910156 C 2572.929688 2084.796875 2573.179688 2084.742188 2573.429688 2084.746094 Z M 2573.429688 2084.746094 "/>
<path fill-rule="nonzero" fill="rgb(59.179688%, 95.701599%, 19.213867%)" fill-opacity="1" d="M 2669.679688 2109.863281 C 2616.660156 2096.644531 2598.851562 2174.007812 2602.03125 2249.136719 L 2634.660156 2249.136719 C 2631.148438 2181.933594 2624.039062 2137.820312 2669.679688 2109.863281 Z M 2669.679688 2109.863281 "/>
<path fill-rule="nonzero" fill="rgb(20.776367%, 49.804688%, 20.384216%)" fill-opacity="1" d="M 2652.949219 2115.378906 C 2653.441406 2115.382812 2653.878906 2115.664062 2654.101562 2116.101562 C 2654.398438 2116.738281 2654.140625 2117.5 2653.511719 2117.816406 C 2634.398438 2127.21875 2625.199219 2149.257812 2620.960938 2174.421875 C 2616.710938 2199.589844 2617.460938 2227.703125 2617.929688 2248.683594 C 2617.941406 2249.394531 2617.378906 2249.980469 2616.671875 2250 C 2615.949219 2250.023438 2615.359375 2249.457031 2615.339844 2248.742188 C 2614.871094 2227.769531 2614.101562 2199.527344 2618.398438 2174.003906 C 2622.710938 2148.476562 2632.121094 2125.472656 2652.359375 2115.511719 C 2652.550781 2115.421875 2652.75 2115.375 2652.949219 2115.378906 Z M 2652.949219 2115.378906 "/>
<path fill-rule="nonzero" fill="rgb(80.46875%, 92.96875%, 91.40625%)" fill-opacity="1" d="M 1093.378906 510.039062 C 1049.320312 510.058594 1011.378906 526.539062 1002.640625 549.449219 C 996.074219 548.679688 989.367188 548.289062 982.640625 548.28125 C 958.066406 548.28125 934.503906 553.460938 917.128906 562.679688 C 899.753906 571.898438 889.992188 584.398438 889.992188 597.441406 C 890 618.378906 915.027344 637.019531 952.339844 643.871094 C 942.128906 637.179688 936.554688 628.820312 936.554688 620.199219 C 936.554688 599.410156 968.332031 582.558594 1007.53125 582.558594 C 1012.679688 582.558594 1017.820312 582.851562 1022.859375 583.441406 C 1029.539062 565.890625 1058.609375 553.269531 1092.371094 553.261719 C 1092.378906 553.261719 1092.398438 553.261719 1092.421875 553.261719 C 1125.230469 553.261719 1153.769531 565.191406 1161.429688 582.121094 C 1164.449219 581.910156 1167.5 581.808594 1170.550781 581.808594 C 1209.738281 581.808594 1241.519531 598.660156 1241.519531 619.449219 C 1241.519531 627.929688 1236.128906 636.160156 1226.210938 642.808594 C 1263.289062 635.890625 1288.089844 617.300781 1288.078125 596.449219 C 1288.078125 569.308594 1246.601562 547.308594 1195.429688 547.308594 C 1191.460938 547.308594 1187.480469 547.441406 1183.539062 547.710938 C 1173.539062 525.621094 1136.289062 510.039062 1093.449219 510.039062 C 1093.429688 510.039062 1093.410156 510.039062 1093.390625 510.039062 Z M 1093.378906 510.039062 "/>
<path fill-rule="nonzero" fill="rgb(54.101562%, 85.9375%, 83.201599%)" fill-opacity="1" d="M 2212.558594 697.25 C 2151.859375 697.269531 2099.601562 719.960938 2087.570312 751.519531 C 2078.519531 750.460938 2069.289062 749.929688 2060.019531 749.921875 C 2026.179688 749.921875 1993.71875 757.058594 1969.78125 769.75 C 1945.851562 782.449219 1932.410156 799.671875 1932.410156 817.621094 C 1932.410156 846.46875 1966.890625 872.148438 2018.28125 881.589844 C 2004.21875 872.359375 1996.539062 860.851562 1996.539062 848.980469 C 1996.539062 820.339844 2040.308594 797.121094 2094.300781 797.121094 C 2101.398438 797.121094 2108.480469 797.53125 2115.410156 798.351562 C 2124.628906 774.171875 2164.660156 756.78125 2211.160156 756.769531 C 2211.179688 756.769531 2211.199219 756.769531 2211.230469 756.769531 C 2256.429688 756.769531 2295.730469 773.210938 2306.28125 796.519531 C 2310.449219 796.230469 2314.640625 796.089844 2318.839844 796.089844 C 2372.828125 796.089844 2416.601562 819.308594 2416.601562 847.949219 C 2416.601562 859.621094 2409.171875 870.960938 2395.511719 880.121094 C 2446.578125 870.578125 2480.738281 844.980469 2480.730469 816.269531 C 2480.730469 778.878906 2423.601562 748.570312 2353.121094 748.570312 C 2347.640625 748.570312 2342.171875 748.761719 2336.730469 749.128906 C 2322.960938 718.699219 2271.648438 697.25 2212.648438 697.25 C 2212.621094 697.25 2212.589844 697.25 2212.558594 697.25 Z M 2212.558594 697.25 "/>
<path fill-rule="nonzero" fill="rgb(80.46875%, 92.96875%, 91.40625%)" fill-opacity="1" d="M 1540 1002.820312 C 1504.359375 1002.839844 1473.671875 1016.171875 1466.609375 1034.699219 C 1461.289062 1034.070312 1455.871094 1033.761719 1450.429688 1033.761719 C 1430.550781 1033.761719 1411.488281 1037.941406 1397.429688 1045.398438 C 1383.378906 1052.859375 1375.480469 1062.96875 1375.488281 1073.519531 C 1375.488281 1090.460938 1395.730469 1105.539062 1425.921875 1111.078125 C 1417.660156 1105.660156 1413.148438 1098.898438 1413.148438 1091.929688 C 1413.148438 1075.109375 1438.851562 1061.480469 1470.558594 1061.480469 C 1474.730469 1061.480469 1478.890625 1061.71875 1482.960938 1062.191406 C 1488.371094 1048 1511.878906 1037.789062 1539.179688 1037.78125 C 1539.191406 1037.78125 1539.210938 1037.78125 1539.21875 1037.78125 C 1565.769531 1037.78125 1588.851562 1047.429688 1595.039062 1061.121094 C 1597.488281 1060.949219 1599.949219 1060.871094 1602.421875 1060.871094 C 1634.128906 1060.871094 1659.828125 1074.5 1659.828125 1091.320312 C 1659.828125 1098.179688 1655.46875 1104.839844 1647.441406 1110.21875 C 1677.429688 1104.621094 1697.5 1089.578125 1697.488281 1072.71875 C 1697.488281 1050.761719 1663.941406 1032.960938 1622.550781 1032.960938 C 1619.328125 1032.960938 1616.121094 1033.070312 1612.929688 1033.289062 C 1604.839844 1015.421875 1574.710938 1002.820312 1540.058594 1002.820312 C 1540.039062 1002.820312 1540.019531 1002.820312 1540 1002.820312 Z M 1540 1002.820312 "/>
</svg>
